<svg width="14" height="14" viewBox="0 0 14 14" fill="none" xmlns="http://www.w3.org/2000/svg">
<path fill-rule="evenodd" clip-rule="evenodd" d="M2.27877 1.56076L1.43046 1.77287C1.49194 3.36184 1.81923 4.82122 2.37113 6.11834L3.81644 4.38693C4.05725 4.07708 4.07748 4.03791 4.08742 4.01058C4.10432 3.96408 4.11127 3.91456 4.10794 3.8652C4.10595 3.83589 4.09715 3.79206 3.94728 3.41722L3.44272 2.15586C3.34077 1.90109 3.27872 1.74725 3.22349 1.63498C3.19793 1.58297 3.17976 1.5525 3.16748 1.53438C3.15654 1.51828 3.15115 1.51316 3.15051 1.51253C3.10088 1.46542 3.03869 1.43361 2.97146 1.42099C2.97061 1.42082 2.96323 1.41941 2.94377 1.41999C2.92191 1.42066 2.88655 1.42378 2.8294 1.43348C2.70609 1.45445 2.545 1.49421 2.27877 1.56076ZM3.07469 7.49121L4.91436 5.28735C4.91961 5.28108 4.92473 5.27472 4.92977 5.26826C4.94375 5.25027 4.95781 5.2323 4.9718 5.21432C5.14793 4.98877 5.32506 4.76199 5.4219 4.49555C5.50638 4.26306 5.54131 4.01546 5.52456 3.76867C5.50525 3.48582 5.39783 3.21889 5.29106 2.95339C5.28254 2.93222 5.27402 2.91106 5.26557 2.8899L4.75228 1.60675C4.66191 1.38075 4.57977 1.1754 4.49755 1.00826C4.40881 0.827791 4.29785 0.644061 4.12831 0.483049C3.8804 0.247508 3.56966 0.088625 3.2335 0.0255121C3.00369 -0.0176304 2.78979 -2.87214e-06 2.5915 0.0336905C2.40791 0.0648991 2.19329 0.118556 1.95717 0.177601C1.94964 0.179496 1.94205 0.181392 1.93445 0.183294L0.537708 0.532517C0.221642 0.611532 -9.53674e-07 0.89549 -9.53674e-07 1.22124C-9.53674e-07 3.6558 0.558936 5.8693 1.58303 7.74614C1.58708 7.75381 1.59126 7.76148 1.59559 7.76907C2.13401 8.7507 2.80001 9.63988 3.58002 10.4199C4.4627 11.3025 5.48508 12.0392 6.62312 12.6102C6.6315 12.6146 6.63988 12.6188 6.6484 12.6229C8.43821 13.5158 10.5128 14 12.7789 14C13.1047 14 13.3887 13.7782 13.4677 13.4622L13.8167 12.0654L13.8224 12.0427C13.8814 11.8065 13.9351 11.592 13.9663 11.4083C14 11.21 14.0176 10.9961 13.9745 10.7663C13.9114 10.4302 13.7525 10.1195 13.517 9.87154C13.3559 9.702 13.1722 9.59104 12.9917 9.5023C12.8246 9.42009 12.6192 9.33795 12.3932 9.24758L11.2458 8.78861C11.2215 8.77888 11.1972 8.76908 11.1729 8.75929C10.871 8.63782 10.5679 8.51578 10.25 8.50598C9.97296 8.49753 9.69777 8.55397 9.4465 8.67097C9.1581 8.80515 8.92761 9.03666 8.698 9.26731C8.68018 9.2852 8.66235 9.30309 8.64451 9.32091L6.82616 11.1107C5.99298 10.6433 5.242 10.0738 4.5841 9.4159C4.01075 8.84263 3.50463 8.19865 3.07469 7.49121ZM8.19429 11.7563C9.41183 12.2311 10.7646 12.5129 12.2272 12.5696L12.4392 11.7211C12.5057 11.4549 12.5455 11.2937 12.5665 11.1704C12.5762 11.1133 12.5793 11.0779 12.58 11.0561C12.5806 11.0366 12.5792 11.0293 12.579 11.0284C12.5664 10.9612 12.5346 10.899 12.4875 10.8494C12.4871 10.849 12.4821 10.8435 12.4656 10.8324C12.4475 10.8201 12.417 10.8019 12.365 10.7763C12.2527 10.7211 12.0989 10.6591 11.8441 10.5571L10.7185 10.1069C10.29 9.9355 10.2389 9.9262 10.2064 9.92521C10.151 9.9235 10.0959 9.93479 10.0457 9.95822C10.0161 9.97192 9.97281 10.0007 9.64652 10.327L9.64255 10.3309L8.19429 11.7563Z" fill="#56544E"/>
</svg>
